<svg xmlns="http://www.w3.org/2000/svg" xmlns:xlink="http://www.w3.org/1999/xlink" version="1.1" width="648pt" height="648pt" viewBox="0 0 648 648"><rect x="0" y="0" width="100%" height="100%" fill="#ffffff"/>
<defs>
<clipPath id="clip_0">
<path transform="matrix(1,0,0,-1,0,648)" d="M49.4 19.4H611.5V641.5H49.4Z"/>
</clipPath>
<clipPath id="clip_1">
<path transform="matrix(1,0,0,-1,0,648)" d="M49.4 19.4H611.5V641.5H49.4Z"/>
</clipPath>
<clipPath id="clip_2">
<path transform="matrix(1,0,0,-1,0,648)" d="M49.4 19.4H611.5V641.5H49.4Z"/>
</clipPath>
<clipPath id="clip_3">
<path transform="matrix(1,0,0,-1,0,648)" d="M49.4 19.4H611.5V641.5H49.4Z"/>
</clipPath>
<clipPath id="clip_4">
<path transform="matrix(1,0,0,-1,0,648)" d="M49.4 19.4H611.5V641.5H49.4Z"/>
</clipPath>
<clipPath id="clip_5">
<path transform="matrix(1,0,0,-1,0,648)" d="M49.4 19.4H611.5V641.5H49.4Z"/>
</clipPath>
<clipPath id="clip_6">
<path transform="matrix(1,0,0,-1,0,648)" d="M49.4 19.4H611.5V641.5H49.4Z"/>
</clipPath>
<g id="font_7_53">
<path transform="matrix(.001,0,0,.001,0,0)" d="M108 729H495V646H198V467C212 472 227 476 241 478 255 480 270 482 284 482 365 482 429 459 477 415 525 370 549 310 549 234 549 155 524 94 475 51 426 8 357-13 269-13 238-13 207-10 175-6 143-1 111 6 77 17V116C106 100 136 88 168 80 199 72 232 69 267 69 323 69 368 83 401 113 433 143 450 183 450 234 450 284 433 324 401 354 368 384 323 399 267 399 241 399 214 396 188 390 162 384 135 375 108 363V729Z"/>
</g>
<g id="font_7_54">
<path transform="matrix(.001,0,0,.001,0,0)" d="M330 404C286 404 251 388 225 358 199 328 186 286 186 234 186 181 199 139 225 109 251 79 286 64 330 64 374 64 409 79 435 109 461 139 474 181 474 234 474 286 461 328 435 358 409 388 374 404 330 404ZM526 713V623C501 635 476 644 451 650 425 656 400 659 376 659 310 659 260 637 226 593 192 549 172 482 168 394 187 422 211 444 240 459 269 474 301 482 336 482 409 482 467 459 509 415 551 371 573 310 573 234 573 159 550 99 506 54 462 9 403-13 330-13 246-13 181 19 137 83 92 147 70 241 70 364 70 479 97 571 152 639 206 707 280 742 372 742 396 742 421 739 447 735 472 730 498 723 526 713Z"/>
</g>
<g id="font_7_52">
<path transform="matrix(.001,0,0,.001,0,0)" d="M378 643 129 254H378V643ZM352 729H476V254H580V172H476V0H378V172H49V267L352 729Z"/>
</g>
<g id="font_7_48">
<path transform="matrix(.001,0,0,.001,0,0)" d="M318 664C267 664 229 639 203 589 177 539 165 464 165 364 165 264 177 189 203 139 229 89 267 64 318 64 369 64 407 89 433 139 458 189 471 264 471 364 471 464 458 539 433 589 407 639 369 664 318 664ZM318 742C399 742 461 709 505 645 548 580 570 486 570 364 570 241 548 147 505 83 461 19 399-13 317-13 235-13 173 19 130 83 87 147 66 241 66 364 66 486 87 580 130 645 173 709 236 742 318 742Z"/>
</g>
<g id="font_7_55">
<path transform="matrix(.001,0,0,.001,0,0)" d="M82 729H551V687L286 0H183L432 646H82V729Z"/>
</g>
<g id="font_7_49">
<path transform="matrix(.001,0,0,.001,0,0)" d="M124 83H285V639L110 604V694L284 729H383V83H544V0H124V83Z"/>
</g>
<g id="font_7_57">
<path transform="matrix(.001,0,0,.001,0,0)" d="M110 15V105C134 93 159 84 185 78 210 72 235 69 260 69 324 69 374 90 408 134 442 178 462 244 468 334 448 306 424 284 396 269 367 254 335 247 300 247 226 247 168 269 126 313 84 357 63 417 63 494 63 568 85 628 129 674 173 719 232 742 306 742 390 742 455 709 499 645 543 580 566 486 566 364 566 248 538 157 484 89 429 21 356-13 264-13 239-13 214-10 189-6 163-2 137 5 110 15ZM306 324C350 324 385 339 411 369 437 399 450 441 450 494 450 546 437 588 411 618 385 648 350 664 306 664 262 664 227 648 201 618 175 588 162 546 162 494 162 441 175 399 201 369 227 339 262 324 306 324Z"/>
</g>
<g id="font_7_56">
<path transform="matrix(.001,0,0,.001,0,0)" d="M318 346C271 346 234 333 207 308 180 283 167 249 167 205 167 161 180 126 207 101 234 76 271 64 318 64 364 64 401 76 428 102 455 127 469 161 469 205 469 249 455 283 429 308 402 333 365 346 318 346ZM219 388C177 398 144 418 120 447 96 476 85 511 85 553 85 611 105 657 147 691 188 725 245 742 318 742 390 742 447 725 489 691 530 657 551 611 551 553 551 511 539 476 515 447 491 418 459 398 417 388 464 377 501 355 528 323 554 291 568 251 568 205 568 134 546 80 503 43 459 5 397-13 317-13 237-13 175 5 132 43 89 80 68 134 68 205 68 251 81 291 108 323 134 355 171 377 219 388ZM183 544C183 506 194 476 218 455 242 434 275 424 318 424 360 424 393 434 417 455 441 476 453 506 453 544 453 582 441 611 417 632 393 653 360 664 318 664 275 664 242 653 218 632 194 611 183 582 183 544Z"/>
</g>
<g id="font_7_50">
<path transform="matrix(.001,0,0,.001,0,0)" d="M192 83H536V0H73V83C110 121 161 173 226 239 290 304 331 346 348 365 380 400 402 430 414 455 426 479 433 504 433 528 433 566 419 598 392 622 365 646 330 659 286 659 255 659 222 653 188 643 154 632 117 616 78 594V694C118 710 155 722 189 730 223 738 255 742 284 742 359 742 419 723 464 685 509 647 532 597 532 534 532 504 526 475 515 449 504 422 484 390 454 354 446 344 420 317 376 272 332 227 271 164 192 83Z"/>
</g>
<g id="font_7_67">
<path transform="matrix(.001,0,0,.001,0,0)" d="M644 673V569C610 599 575 622 537 638 499 653 460 661 418 661 334 661 270 635 226 584 182 533 160 460 160 364 160 268 182 194 226 143 270 92 334 67 418 67 460 67 499 74 537 90 575 105 610 128 644 159V56C609 32 572 15 534 4 496-7 455-13 412-13 302-13 215 20 151 87 87 154 56 246 56 364 56 481 87 573 151 641 215 708 302 742 412 742 456 742 497 736 535 725 573 713 610 696 644 673Z"/>
</g>
<g id="font_7_82">
<path transform="matrix(.001,0,0,.001,0,0)" d="M444 342C465 334 486 319 506 296 526 272 546 240 566 199L666 0H560L467 187C443 235 419 268 397 284 374 300 343 308 304 308H197V0H98V729H321C404 729 466 711 507 677 548 642 569 589 569 519 569 473 558 434 537 404 515 374 484 353 444 342ZM197 648V389H321C368 389 404 400 428 422 452 444 465 476 465 519 465 561 452 593 428 615 404 637 368 648 321 648H197Z"/>
</g>
<g id="font_7_101">
<path transform="matrix(.001,0,0,.001,0,0)" d="M562 296V252H149C153 190 171 142 205 110 238 78 284 62 344 62 378 62 412 66 444 74 476 82 509 95 541 113V28C509 14 476 3 442-3 408-9 373-13 339-13 251-13 182 12 131 62 80 112 55 181 55 268 55 357 79 428 127 481 175 533 241 560 323 560 397 560 455 536 498 489 540 441 562 377 562 296ZM472 322C471 371 457 410 431 440 404 469 368 484 324 484 274 484 234 469 204 441 174 413 156 373 152 322H472Z"/>
</g>
<g id="font_7_99">
<path transform="matrix(.001,0,0,.001,0,0)" d="M488 526V442C462 456 437 466 411 473 385 480 360 484 334 484 276 484 230 465 198 428 166 391 150 339 150 273 150 206 166 154 198 117 230 80 276 62 334 62 360 62 385 65 411 72 437 79 462 90 488 104V21C462 9 436 0 410-5 383-10 354-13 324-13 242-13 176 12 128 64 79 115 55 185 55 273 55 362 79 432 128 483 177 534 244 560 330 560 358 560 385 557 411 551 437 545 463 537 488 526Z"/>
</g>
<g id="font_7_105">
<path transform="matrix(.001,0,0,.001,0,0)" d="M94 547H184V0H94V547ZM94 760H184V646H94V760Z"/>
</g>
<g id="font_7_118">
<path transform="matrix(.001,0,0,.001,0,0)" d="M30 547H125L296 88 467 547H562L357 0H235L30 547Z"/>
</g>
<g id="font_7_114">
<path transform="matrix(.001,0,0,.001,0,0)" d="M411 463C401 469 390 473 378 476 366 478 353 480 339 480 288 480 249 463 222 430 194 397 181 350 181 288V0H91V547H181V462C199 495 224 520 254 536 284 552 321 560 365 560 371 560 378 559 386 559 393 558 401 557 411 555V463Z"/>
</g>
<g id="font_7_83">
<path transform="matrix(.001,0,0,.001,0,0)" d="M535 705V609C497 627 462 640 429 649 395 657 363 662 333 662 279 662 237 651 208 631 179 610 165 580 165 542 165 510 174 485 194 469 213 452 250 439 304 429L364 417C437 403 491 378 526 343 561 307 579 260 579 201 579 130 555 77 508 41 460 5 391-13 300-13 265-13 228-9 189-2 150 5 110 16 69 32V134C109 111 148 94 186 83 224 71 262 66 300 66 356 66 399 77 430 99 460 121 476 152 476 194 476 230 465 258 443 278 421 298 385 313 335 323L275 335C201 349 148 372 115 404 82 435 66 478 66 534 66 598 88 649 134 686 179 723 242 742 322 742 356 742 390 739 426 733 461 727 497 717 535 705Z"/>
</g>
<g id="font_7_104">
<path transform="matrix(.001,0,0,.001,0,0)" d="M549 330V0H459V327C459 379 448 417 428 443 408 469 378 482 338 482 289 482 251 466 223 435 195 404 181 362 181 309V0H91V760H181V462C202 494 227 519 257 535 286 551 320 560 358 560 420 560 468 540 500 501 532 462 549 405 549 330Z"/>
</g>
<g id="font_7_97">
<path transform="matrix(.001,0,0,.001,0,0)" d="M343 275C270 275 220 266 192 250 164 233 150 205 150 165 150 133 160 107 181 89 202 70 231 61 267 61 317 61 357 78 387 114 417 149 432 196 432 255V275H343ZM522 312V0H432V83C411 49 385 25 355 10 325-5 287-13 243-13 187-13 142 2 109 33 76 64 60 106 60 159 60 220 80 266 122 298 163 329 224 345 306 345H432V354C432 395 418 427 391 450 364 472 326 484 277 484 245 484 215 480 185 472 155 464 127 453 100 439V522C132 534 164 544 195 550 226 556 256 560 286 560 365 560 424 539 463 498 502 457 522 395 522 312Z"/>
</g>
</defs>
<path transform="matrix(1,0,0,-1,0,648)" d="M0 0H648V648H0Z" fill="#ffffff"/>
<g clip-path="url(#clip_0)">
<path transform="matrix(1,0,0,-1,0,648)" d="M375.2 576.6C336.9 596.2 293.1 602.5 250.9 594.6 208.6 586.6 170.2 564.8 141.7 532.6 113.2 500.4 96.2 459.6 93.4 416.7 90.6 373.8 102.2 331.2 126.3 295.5 133 320.5 144.9 343.7 161.2 363.8 177.5 383.8 197.9 400.2 220.9 411.9 222.8 453.2 239.3 492.6 267.6 522.8 295.9 553 334 572.1 375.2 576.6" fill="#ff0000" fill-opacity=".4"/>
</g>
<g clip-path="url(#clip_1)">
<path transform="matrix(1,0,0,-1,0,648)" d="M375.2 576.6C417.9 554.8 451 517.8 468.1 472.9 485.1 428 484.9 378.4 467.4 333.6 473.5 322 478.4 309.7 482 297.1 485.5 284.4 487.7 271.4 488.4 258.2 521.3 279.5 546.1 311.2 558.7 348.2 571.3 385.2 571 425.5 557.9 462.3 544.8 499.2 519.6 530.5 486.4 551.3 453.3 572 414 581 375.2 576.6" fill="#008000" fill-opacity=".4"/>
</g>
<g clip-path="url(#clip_2)">
<path transform="matrix(1,0,0,-1,0,648)" d="M375.2 576.6C334 572.1 295.9 553 267.6 522.8 239.3 492.6 222.8 453.2 220.9 411.9 264 433.8 314.1 437.9 360.2 423.2 406.3 408.6 444.8 376.4 467.4 333.6 484.9 378.4 485.1 428 468.1 472.9 451 517.8 417.9 554.8 375.2 576.6" fill="#b35900" fill-opacity=".4"/>
</g>
<g clip-path="url(#clip_3)">
<path transform="matrix(1,0,0,-1,0,648)" d="M126.3 295.5C119.3 269.7 118.1 242.7 122.6 216.4 127.1 190.1 137.2 165 152.4 143 167.5 121 187.2 102.5 210.2 88.9 233.2 75.2 258.9 66.7 285.5 64 312 61.3 338.9 64.3 364.2 73 389.5 81.7 412.5 95.7 431.8 114.2 451.2 132.7 466.2 155.1 476 180 485.8 204.9 490 231.6 488.4 258.2 471.8 247.5 453.4 239.7 434.1 235.1 414.8 230.6 394.9 229.4 375.2 231.6 333 210 284.4 204.6 238.6 216.4 192.8 228.2 152.8 256.3 126.3 295.5" fill="#0000ff" fill-opacity=".4"/>
</g>
<g clip-path="url(#clip_4)">
<path transform="matrix(1,0,0,-1,0,648)" d="M126.3 295.5C152.8 256.3 192.8 228.2 238.6 216.4 284.4 204.6 333 210 375.2 231.6 331.4 236.5 291 257.8 262.4 291.3 233.8 324.8 218.9 367.9 220.9 411.9 197.9 400.2 177.5 383.8 161.2 363.8 144.9 343.7 133 320.5 126.3 295.5" fill="#b300b3" fill-opacity=".4"/>
</g>
<g clip-path="url(#clip_5)">
<path transform="matrix(1,0,0,-1,0,648)" d="M467.4 333.6C458.8 311.7 446.4 291.6 430.6 274.1 414.9 256.7 396.1 242.3 375.2 231.6 394.9 229.4 414.8 230.6 434.1 235.1 453.4 239.7 471.8 247.5 488.4 258.2 487.7 271.4 485.5 284.4 482 297.1 478.4 309.7 473.5 322 467.4 333.6" fill="#0059b3" fill-opacity=".4"/>
</g>
<g clip-path="url(#clip_6)">
<path transform="matrix(1,0,0,-1,0,648)" d="M220.9 411.9C218.9 367.9 233.8 324.8 262.4 291.3 291 257.8 331.4 236.5 375.2 231.6 396.1 242.3 414.9 256.7 430.6 274.1 446.4 291.6 458.8 311.7 467.4 333.6 444.8 376.4 406.3 408.6 360.2 423.2 314.1 437.9 264 433.8 220.9 411.9" fill="#663366" fill-opacity=".4"/>
</g>
<use data-text="5" xlink:href="#font_7_53" transform="matrix(30,0,0,-30,152.84877,155.44248)"/>
<use data-text="6" xlink:href="#font_7_54" transform="matrix(30,0,0,-30,171.92877,155.44248)"/>
<use data-text="4" xlink:href="#font_7_52" transform="matrix(30,0,0,-30,191.00878,155.44248)"/>
<use data-text="4" xlink:href="#font_7_52" transform="matrix(30,0,0,-30,493.29856,206.00922)"/>
<use data-text="0" xlink:href="#font_7_48" transform="matrix(30,0,0,-30,512.37857,206.00922)"/>
<use data-text="5" xlink:href="#font_7_53" transform="matrix(30,0,0,-30,531.45858,206.00922)"/>
<use data-text="7" xlink:href="#font_7_55" transform="matrix(30,0,0,-30,337.7511,184.88034)"/>
<use data-text="5" xlink:href="#font_7_53" transform="matrix(30,0,0,-30,356.83113,184.88034)"/>
<use data-text="1" xlink:href="#font_7_49" transform="matrix(30,0,0,-30,375.9111,184.88034)"/>
<use data-text="9" xlink:href="#font_7_57" transform="matrix(30,0,0,-30,262.8431,531.91696)"/>
<use data-text="1" xlink:href="#font_7_49" transform="matrix(30,0,0,-30,281.9231,531.91696)"/>
<use data-text="0" xlink:href="#font_7_48" transform="matrix(30,0,0,-30,301.0031,531.91696)"/>
<use data-text="4" xlink:href="#font_7_52" transform="matrix(30,0,0,-30,202.32588,377.60295)"/>
<use data-text="9" xlink:href="#font_7_57" transform="matrix(30,0,0,-30,221.40589,377.60295)"/>
<use data-text="8" xlink:href="#font_7_56" transform="matrix(30,0,0,-30,240.48589,377.60295)"/>
<use data-text="1" xlink:href="#font_7_49" transform="matrix(30,0,0,-30,415.2324,391.3169)"/>
<use data-text="7" xlink:href="#font_7_55" transform="matrix(30,0,0,-30,434.31239,391.3169)"/>
<use data-text="4" xlink:href="#font_7_52" transform="matrix(30,0,0,-30,453.3924,391.3169)"/>
<use data-text="6" xlink:href="#font_7_54" transform="matrix(30,0,0,-30,306.1622,314.10847)"/>
<use data-text="2" xlink:href="#font_7_50" transform="matrix(30,0,0,-30,325.2422,314.10847)"/>
<use data-text="9" xlink:href="#font_7_57" transform="matrix(30,0,0,-30,344.3222,314.10847)"/>
<use data-text="C" xlink:href="#font_7_67" transform="matrix(30,0,0,-30,128.93927,50.065797)"/>
<use data-text="2" xlink:href="#font_7_50" transform="matrix(30,0,0,-30,149.87928,50.065797)"/>
<use data-text="C" xlink:href="#font_7_67" transform="matrix(30,0,0,-30,168.95928,50.065797)"/>
<use data-text="R" xlink:href="#font_7_82" transform="matrix(30,0,0,-30,481.1319,70.28815)"/>
<use data-text="e" xlink:href="#font_7_101" transform="matrix(30,0,0,-30,500.63816,70.28815)"/>
<use data-text="c" xlink:href="#font_7_99" transform="matrix(30,0,0,-30,519.08816,70.28815)"/>
<use data-text="e" xlink:href="#font_7_101" transform="matrix(30,0,0,-30,535.58816,70.28815)"/>
<use data-text="i" xlink:href="#font_7_105" transform="matrix(30,0,0,-30,554.03817,70.28815)"/>
<use data-text="v" xlink:href="#font_7_118" transform="matrix(30,0,0,-30,562.3782,70.28815)"/>
<use data-text="e" xlink:href="#font_7_101" transform="matrix(30,0,0,-30,580.1382,70.28815)"/>
<use data-text="r" xlink:href="#font_7_114" transform="matrix(30,0,0,-30,598.58816,70.28815)"/>
<use data-text="S" xlink:href="#font_7_83" transform="matrix(30,0,0,-30,254.8748,626.2133)"/>
<use data-text="h" xlink:href="#font_7_104" transform="matrix(30,0,0,-30,273.9248,626.2133)"/>
<use data-text="a" xlink:href="#font_7_97" transform="matrix(30,0,0,-30,292.9448,626.2133)"/>
<use data-text="r" xlink:href="#font_7_114" transform="matrix(30,0,0,-30,311.3348,626.2133)"/>
<use data-text="e" xlink:href="#font_7_101" transform="matrix(30,0,0,-30,323.00856,626.2133)"/>
<use data-text="r" xlink:href="#font_7_114" transform="matrix(30,0,0,-30,341.45857,626.2133)"/>
</svg>
